<svg xmlns="http://www.w3.org/2000/svg" viewBox="0 0 1152.54 581.34"><defs><style>.cls-1{fill:#fff;}</style></defs><title>Asset 1</title><g id="Layer_2" data-name="Layer 2"><g id="Grid"><polygon class="cls-1" points="857.98 120.44 848.53 120.37 848.53 120.37 848.52 120.37 848.52 129.07 857.98 134 857.98 120.44"/><polygon class="cls-1" points="857.98 120.44 858 120.44 858.9 0.51 849.43 0.44 848.53 120.37 857.98 120.37 857.98 120.44"/><polygon class="cls-1" points="857.98 120.44 857.98 120.37 848.53 120.37 848.53 120.37 857.98 120.44"/><polygon class="cls-1" points="789.95 119.93 799.42 120 799.46 114.16 790.03 109.24 789.95 119.93"/><polygon class="cls-1" points="800.32 0.07 790.85 0 790.11 98.61 799.54 103.52 800.32 0.07"/><polygon class="cls-1" points="1148.17 306.75 600.87 21.59 551.67 21.59 4.38 306.75 0 298.36 549.36 12.12 603.19 12.12 1152.54 298.36 1148.17 306.75"/><polygon class="cls-1" points="1134.63 332.73 593.7 50.88 558.85 50.88 17.91 332.73 13.54 324.33 556.53 41.41 596.02 41.41 1139.01 324.33 1134.63 332.73"/><polygon class="cls-1" points="1121.1 358.7 586.52 80.17 566.02 80.17 31.44 358.7 27.07 350.31 563.7 70.7 588.84 70.7 1125.48 350.31 1121.1 358.7"/><polygon class="cls-1" points="829.61 0.29 820.14 0.22 819.29 113.82 828.72 118.74 829.61 0.29"/><path class="cls-1" d="M115.61,455.27q0,1.33,1.66,1.75a34.42,34.42,0,0,1,15.89,10,25.13,25.13,0,0,1,6.91,17.68q0,15.73-20.14,32.37T77.58,533.74q-6.24,0-9.78-1.62t-3.54-3.79q0-10.48,14.81-10.48,2.08,0,6.45.17a25,25,0,0,0,10.07-2.12A60.47,60.47,0,0,0,106.71,510a61.25,61.25,0,0,0,9.28-7.49,36.28,36.28,0,0,0,6.24-8.2,18,18,0,0,0,2.37-8.74q0-7.16-6.2-12.73t-16.52-5.58q-1.66,0-7.91,2.66t-8.15,2.75q-6.49,0-8.11-1.66t-1.62-5.91q0-2.58,14.06-8.32,11.73-4.66,22.76-15.23t11-17.89a9.45,9.45,0,0,0-4.16-8.07q-4.16-3-11.65-3a101.85,101.85,0,0,0-24.63,3q-12.23,3-13.44,5.7t-6.78,40.32q-5.58,37.65-5.58,43.56t.25,10.86a15.73,15.73,0,0,1-1.79,8.65q-2,3.62-6.95,3.62a8,8,0,0,1-6.95-3.54,15.33,15.33,0,0,1-2.45-8.95,19.38,19.38,0,0,1,.75-4.33q4.33-17.89,8.15-45.77t3.83-32.2a10.71,10.71,0,0,0-1-5.16q-1-1.66-4.37-1.66-1.33,0-2.62.08A3.2,3.2,0,0,1,42,425.23a6.33,6.33,0,0,1-1.29-4q0-7.32,23.55-14.4a165.48,165.48,0,0,1,47.85-7.07q12.48,0,20.43,6.7t7.95,15.69q0,6.66-6.78,15.69A88,88,0,0,1,115.61,455.27Z"/><path class="cls-1" d="M202.5,504.86a66.59,66.59,0,0,0,1.75,14.23,11.91,11.91,0,0,1,.33,2.5q0,1.5-2.75,3.87a8.79,8.79,0,0,1-5.82,2.37q-8.07,0-8.07-14.81,0-15.31,6.32-48.43,2.16-11.57,2.16-14.23a19.28,19.28,0,0,1,1.91-8.95q1.91-3.7,5.41-3.7a10.17,10.17,0,0,1,6.7,2,5.86,5.86,0,0,1,2.45,4.54,25.25,25.25,0,0,1-1.16,6.57q-6.24,22-7.74,31.45A146.83,146.83,0,0,0,202.5,504.86Zm10.9-92.95q-1.75,0-2.66-3.74a24.62,24.62,0,0,0-.92-2.58,25.17,25.17,0,0,1-2.25-9.4q0-3.33,4-6.78a13,13,0,0,1,8.78-3.45,10.47,10.47,0,0,1,5.41,1.87q3,1.87,3,3.62,0,2.75-2,9.32t-6.49,8.86Q215.73,411.92,213.4,411.92Z"/><path class="cls-1" d="M290.55,382.46q6,0,6,7.66,0,6.82-7.24,32.45a245.13,245.13,0,0,0-7.07,35.61q-2.5,19.47-2.5,30.54A213.38,213.38,0,0,0,281.48,516a33,33,0,0,1,.33,3.74,10.06,10.06,0,0,1-2.83,7.16,8.24,8.24,0,0,1-6,3q-4.41,0-6.12-5.49t-1.71-17.72q0-27.88,6.7-69.07t10.65-48.18Q286.48,382.46,290.55,382.46Z"/><path class="cls-1" d="M395.42,488.89q-11.15,17.89-23.63,27.58t-23,9.69A15.18,15.18,0,0,1,336,520q-4.7-6.2-4.7-16.52,0-21.05,17.1-43.19t36.9-22.13q8.65,0,16.06,7.41l11.65-54.42q1.25-5.58,4.62-7.49a11.9,11.9,0,0,1,5.28-1.91q5.82,0,5.82,10.32,0,1.83-3.83,13.65a399.51,399.51,0,0,0-11.52,45Q408,477.32,408,493.46q0,16.64,7.24,16.64a18.41,18.41,0,0,0,9.65-3.08,6.81,6.81,0,0,1,3.91-1.5q2.66,0,2.66,3.49,0,4.24-7.45,9.82t-15.27,5.58Q395,524.42,395,498,395,493.46,395.42,488.89Zm-10.9-38.94q-13.48,0-26.71,18.27T344.58,502q0,10.4,6.91,10.4,6.49,0,15.77-6.82t19.1-21.76q9.82-14.94,9.82-22.43,0-3.66-3.37-7.53A10.56,10.56,0,0,0,384.52,449.94Z"/><path class="cls-1" d="M507.86,439.38q8.57-.67,16.14-1.58a116.66,116.66,0,0,1,12.48-.83q6.32,0,8,1.16t1.66,4.08q0,6.74-9.4,7.32-12.07.75-22.22,2.08t-10.94,2.21q-.79.87-5,19.8t-4.24,24.59q0,9.15,2.41,12.19t7.24,3q7.16,0,19.89-10.73,4.91-4.41,7.57-4.41,3.58,0,3.58,3.83,0,6-11.52,15.52t-23.59,9.53q-20.14,0-20.14-23.72,0-8.57,4.16-26.54T488,455.44q0-1.25-2-1.25l-8.65.75q-10.65,0-10.65-8.49,0-4.83,4.91-4.83h17.14A3.94,3.94,0,0,0,491.8,440q1.33-1.58,3.91-10.61t4.58-17.85q2-8.74,7.82-8.74a6.74,6.74,0,0,1,5.58,2.5,7.67,7.67,0,0,1,2,4.66q0,1.16-3,11.9Z"/><path class="cls-1" d="M650.66,495.13q0,8.49-15,20.47t-31,12q-13.4,0-20.68-7.91t-7.28-22.05q0-23.8,16.06-45.27t35.12-21.47A13.72,13.72,0,0,1,642,444.79q0,12.81-12.57,24.55t-33.62,23q-4.33,2.25-4.33,5.82,0,6.91,4,11.07t11.82,4.16q17.89,0,36.53-19.8,2.75-2.75,4.16-2.75Q650.66,490.88,650.66,495.13Zm-57.83-13q35.28-21,35.28-33.7,0-5-4.49-5-7.66,0-17.27,11.23T592.83,482.15Z"/><path class="cls-1" d="M710.43,490.3q.83-1.5,2-4.16a148,148,0,0,1,10.4-20.35,135.17,135.17,0,0,1,10.44-14.1,65.53,65.53,0,0,1,10.4-10.24,34.09,34.09,0,0,1,8.53-4.87,21.88,21.88,0,0,1,7.41-1.37,16.41,16.41,0,0,1,11.82,4.37A13.67,13.67,0,0,1,776,449.78a7.39,7.39,0,0,1-1.62,4.66,5.89,5.89,0,0,1-5,2.08,8.7,8.7,0,0,1-6.41-3.08q-3-3.08-6.24-3.08-8.65,0-24,21a99.23,99.23,0,0,0-18.64,46.18q-.83,6.49-3.16,8.57a9.54,9.54,0,0,1-6.57,2.08q-4.08,0-5.91-6.07t-1.83-20.47q0-3.91.42-17.22a217.31,217.31,0,0,1,2-25.38q.25-1.58.83-7.41a42.45,42.45,0,0,1,1.46-8.9A10.58,10.58,0,0,1,705,438a9.2,9.2,0,0,1,5.87-2.16,5.52,5.52,0,0,1,4.62,2A6.67,6.67,0,0,1,717,442a36.51,36.51,0,0,1-1.66,9.15,74.6,74.6,0,0,0-2.25,9.07,47.94,47.94,0,0,1-.92,5.91q-.83,3.58-1.66,18.81l-.08,3.08Z"/><path class="cls-1" d="M862.05,493q-11.65,15.64-23,23.47t-20.89,7.82q-6.41,0-11.07-5.41T802.39,505q0-21.88,19.55-47.14t38.86-25.25q7,0,10.4,8,1.08,2.66,3.41,2.66,6.66,0,6.66,5.16a41.32,41.32,0,0,1-.83,7.07Q876,480.07,876,490.14q0,20.14,7.66,24.13,3.66,2,3.66,4.91,0,2.58-3.58,5.2a11.78,11.78,0,0,1-6.91,2.62q-6.41,0-10.57-8.82T862.05,493ZM857,446.2q-11,0-25.55,20.59T816.87,501q0,9.57,6.32,9.57,9.15,0,25.38-18.47t16.23-34Q864.8,446.2,857,446.2Z"/><path class="cls-1" d="M947.61,513.68q-4.08,15-7.66,42l-2.33,15.73a15.37,15.37,0,0,1-3.08,6.62q-2.5,3.29-4.58,3.29-2.58,0-5.87-2.62t-3.29-4.2a54.29,54.29,0,0,1,2.08-12.65q15.23-61.49,15.23-108l-.08-7q-.17-9,3.16-13.06t7.66-4.08q2,0,3.83,3.12t1.83,8.86a139.71,139.71,0,0,1-1.66,19.55q-2.16,14.48-2.25,16.64,12.4-21.64,26.3-33.78T1002.7,432a18.54,18.54,0,0,1,14.19,6.28,22.17,22.17,0,0,1,5.78,15.6q0,27.13-20.8,49.26t-40.52,22.13a11.45,11.45,0,0,1-7.78-2.5Q950.69,520.26,947.61,513.68Zm51.67-67q-11.73,0-29,22t-17.31,34.2q0,3,3.41,5.82a13.1,13.1,0,0,0,8.65,2.83q11.9,0,27.38-17.6t15.48-34.57q0-6.07-2.45-9.36A7.38,7.38,0,0,0,999.29,446.7Z"/><path class="cls-1" d="M1083.18,504.86a66.59,66.59,0,0,0,1.75,14.23,11.91,11.91,0,0,1,.33,2.5q0,1.5-2.75,3.87a8.79,8.79,0,0,1-5.82,2.37q-8.07,0-8.07-14.81,0-15.31,6.32-48.43,2.16-11.57,2.16-14.23a19.28,19.28,0,0,1,1.91-8.95q1.91-3.7,5.41-3.7a10.17,10.17,0,0,1,6.7,2,5.86,5.86,0,0,1,2.45,4.54,25.25,25.25,0,0,1-1.16,6.57q-6.24,22-7.74,31.45A146.83,146.83,0,0,0,1083.18,504.86Zm10.9-92.95q-1.75,0-2.66-3.74a24.62,24.62,0,0,0-.92-2.58,25.17,25.17,0,0,1-2.25-9.4q0-3.33,4-6.78A13,13,0,0,1,1101,386a10.47,10.47,0,0,1,5.41,1.87q3,1.87,3,3.62,0,2.75-2,9.32t-6.49,8.86Q1096.41,411.92,1094.08,411.92Z"/></g></g></svg>